<?xml version="1.0" encoding="utf-8"?>
<!-- Generator: Adobe Illustrator 19.1.0, SVG Export Plug-In . SVG Version: 6.00 Build 0)  -->
<svg version="1.1" id="Layer_1" xmlns="http://www.w3.org/2000/svg" xmlns:xlink="http://www.w3.org/1999/xlink" x="0px" y="0px"
	 width="16px" height="16px" viewBox="-297 389 16 16" enable-background="new -297 389 16 16" xml:space="preserve">
<path fill="#FFFFFF" d="M-282.7,399.1c2.3-2.3,2.3-6.1,0-8.4c-2.3-2.3-6.1-2.3-8.4,0c-2.2,2.2-2.3,5.6-0.4,8l-0.8,0.8
	c-0.3-0.1-0.7,0-1,0.3l-3.4,3.4c-0.4,0.4-0.4,1.1,0,1.5l0.1,0.1c0.4,0.4,1.1,0.4,1.5,0l3.4-3.4c0.3-0.3,0.3-0.6,0.3-1l0.8-0.8
	C-288.4,401.4-284.9,401.3-282.7,399.1z M-290,391.9c1.7-1.7,4.4-1.7,6.1,0c1.7,1.7,1.7,4.4,0,6.1c-1.7,1.7-4.4,1.7-6.1,0
	S-291.7,393.6-290,391.9z"/>
</svg>
